<svg width="22" height="21" viewBox="0 0 22 21" fill="none" xmlns="http://www.w3.org/2000/svg">
<mask id="maskTwilio" mask-type="alpha" maskUnits="userSpaceOnUse" x="1" y="0" width="20" height="20">
<path d="M10.9854 0C5.48023 0 1 4.48677 1 9.99993C1 15.5131 5.48023 19.9999 10.9854 19.9999C16.5198 20.0292 21 15.5424 21 9.99993C21 4.45745 16.5198 0 10.9854 0ZM10.9854 17.3899C6.94436 17.3899 3.63543 14.0761 3.63543 9.99993C3.63543 5.95304 6.94436 2.63928 10.9854 2.63928C15.0556 2.63928 18.3646 5.95304 18.3646 9.99993C18.3646 14.0761 15.0556 17.3899 10.9854 17.3899Z" fill="#9EA3A8"/>
<path d="M13.4744 9.58939C14.6227 9.58939 15.5535 8.6572 15.5535 7.50729C15.5535 6.35738 14.6227 5.4252 13.4744 5.4252C12.3262 5.4252 11.3954 6.35738 11.3954 7.50729C11.3954 8.6572 12.3262 9.58939 13.4744 9.58939Z" fill="#9EA3A8"/>
<path d="M13.4744 14.5747C14.6227 14.5747 15.5535 13.6425 15.5535 12.4926C15.5535 11.3427 14.6227 10.4105 13.4744 10.4105C12.3262 10.4105 11.3954 11.3427 11.3954 12.4926C11.3954 13.6425 12.3262 14.5747 13.4744 14.5747Z" fill="#9EA3A8"/>
<path d="M8.49639 14.5747C9.64463 14.5747 10.5755 13.6425 10.5755 12.4926C10.5755 11.3427 9.64463 10.4105 8.49639 10.4105C7.34816 10.4105 6.41733 11.3427 6.41733 12.4926C6.41733 13.6425 7.34816 14.5747 8.49639 14.5747Z" fill="#9EA3A8"/>
<path d="M8.49639 9.58939C9.64463 9.58939 10.5755 8.6572 10.5755 7.50729C10.5755 6.35738 9.64463 5.4252 8.49639 5.4252C7.34816 5.4252 6.41733 6.35738 6.41733 7.50729C6.41733 8.6572 7.34816 9.58939 8.49639 9.58939Z" fill="#9EA3A8"/>
</mask>
<g mask="url(#maskTwilio)">
<rect width="22" height="21" fill="#242748"/>
</g>
</svg>
